<svg width="103" height="57" viewBox="0 0 103 57" fill="none" xmlns="http://www.w3.org/2000/svg">
<path fill-rule="evenodd" clip-rule="evenodd" d="M11.3764 0.803653C11.3953 0.488343 11.4107 0.420877 11.4765 0.367083C11.5755 0.286115 11.6112 0.287179 11.7177 0.37428C11.8041 0.444983 11.8042 0.445707 11.7809 1.0877C11.7179 2.83151 11.4619 4.27926 11.0448 5.25088C10.6028 6.2805 10.1116 6.87995 8.61045 8.22118C7.75474 8.98575 7.54452 9.25906 7.67305 9.43995C7.73333 9.52476 8.10902 9.65666 8.46142 9.71676C8.63058 9.74559 9.43746 9.77281 10.4258 9.78303C13.1382 9.81106 14.2262 9.94071 14.5299 10.2721C14.6881 10.4447 14.6725 10.5741 14.4643 10.8161C14.0202 11.3322 12.9054 11.8077 9.40406 12.9743C8.31735 13.3365 7.17028 13.7303 6.85504 13.8495C6.20543 14.0952 5.60322 14.3729 5.52701 14.4618C5.48285 14.5134 5.50571 14.5268 5.68993 14.5575C6.05304 14.618 7.60939 14.5892 9.40483 14.4888C11.4025 14.377 12.8566 14.3828 13.2336 14.504C13.6197 14.628 13.7692 14.8313 13.6929 15.1288C13.6336 15.36 13.3884 15.5869 12.8507 15.9082C12.1559 16.3235 11.4245 16.6506 9.55069 17.3842C8.60808 17.7532 7.63994 18.1414 7.39928 18.2468C6.23059 18.7587 5.50119 19.2362 5.56967 19.4446C5.58126 19.4799 5.65317 19.5459 5.72949 19.5914C6.25874 19.9068 7.49631 20.1441 9.42306 20.2997C12.4626 20.5451 13.4599 20.7159 13.7589 21.0422C13.9901 21.2944 13.846 21.6281 13.4199 21.8273C12.8929 22.0737 11.6541 22.3779 9.32767 22.8321C7.4714 23.1944 7.03077 23.2937 6.82912 23.395C6.73158 23.4441 6.65179 23.4962 6.65183 23.5109C6.65197 23.5751 6.99102 23.7764 7.33062 23.9138C8.17043 24.2537 9.37004 24.4813 10.8452 24.5804L11.5198 24.6257L12.3949 24.3881C14.9346 23.6984 17.3654 23.2361 17.9852 23.3249C18.1997 23.3556 18.2769 23.4589 18.2341 23.6578C18.2075 23.7817 17.8769 23.957 17.1487 24.2333C15.705 24.7813 14.1776 25.0536 12.2271 25.111C11.5497 25.1309 11.5477 25.1312 10.7321 25.3696C5.93442 26.7719 1.94779 28.3704 1.22306 29.1824L1.13641 29.2795L1.22306 29.3317C1.60382 29.5608 3.35142 29.6038 5.35427 29.4333L5.89825 29.387L6.09636 29.1985C7.1115 28.2326 9.56549 27.636 12.5225 27.6361C14.2216 27.6362 15.1969 27.8081 15.3833 28.1404C15.4557 28.2695 15.4554 28.4545 15.3825 28.5761C15.2129 28.8589 14.3111 29.1548 12.9054 29.389C11.7706 29.578 11.0897 29.6349 9.2772 29.6919C7.9341 29.7342 6.87696 29.7901 6.35351 29.8466L6.10993 29.8729L6.03444 30.0779C5.99291 30.1907 5.95893 30.3505 5.95893 30.4332C5.95893 30.6749 6.09851 31.0478 6.25947 31.2358C6.3082 31.2927 6.33784 31.3329 6.37723 31.3574C6.47333 31.4172 6.62748 31.3838 7.2586 31.2726C9.17653 30.9346 11.606 30.742 13.9994 30.7382C15.5878 30.7357 15.9418 30.7592 16.323 30.8926C16.7459 31.0406 16.7511 31.4613 16.3331 31.7056C15.8517 31.9868 14.2455 32.3483 12.7049 32.5222C10.0283 32.8242 7.8836 32.6739 6.64993 32.0977L6.3382 31.9521L5.93887 32.0574C5.27048 32.2337 4.81496 32.4363 4.67231 32.6207C4.60919 32.7023 4.61134 32.709 4.74451 32.8456C4.90036 33.0054 5.24247 33.1985 5.72191 33.3973C6.00691 33.5155 6.22041 33.5576 7.34458 33.7171C8.99756 33.9518 10.2447 34.1475 10.754 34.2522C10.9746 34.2975 11.9017 34.477 12.8143 34.6512C16.9045 35.4315 18.4958 35.8431 18.8292 36.2068C18.9717 36.3624 18.9794 36.5538 18.8489 36.6952C18.6636 36.8957 18.2252 36.9689 16.9348 37.0148C15.5692 37.0633 14.6703 37.0093 12.3402 36.739C11.8489 36.682 11.414 36.6366 11.3739 36.6381C11.2745 36.6418 11.6603 36.7511 13.1699 37.1468C13.877 37.3321 14.488 37.5041 14.5278 37.5289C14.6279 37.5915 14.6608 37.7748 14.5962 37.9095C14.5655 37.9734 14.4836 38.0424 14.3992 38.0754C14.1384 38.1774 13.0855 38.3315 10.8656 38.5925C9.66344 38.7339 8.53121 38.8729 8.34951 38.9014L8.01918 38.9533L8.31089 38.9825C8.47134 38.9986 9.05386 39.0334 9.60538 39.0598C11.1545 39.134 11.7418 39.2032 12.0378 39.3462C12.3321 39.4885 12.3929 39.7848 12.1767 40.0229C11.9675 40.2534 11.5227 40.4352 9.78687 41L9.43965 41.113L9.73217 41.4613C9.95767 41.7298 10.0595 41.8926 10.1763 42.1717C10.4929 42.9278 10.6733 43.9236 10.7172 45.1564C10.7283 45.4709 10.7248 48.1328 10.7093 51.0718L10.6811 56.4155L10.585 56.4785C10.4986 56.5352 10.4791 56.5339 10.3906 56.4663L10.2923 56.391L10.2997 50.7188C10.3051 46.6068 10.2954 44.9295 10.2645 44.6207C10.0754 42.734 9.71496 41.8421 8.97615 41.4326C8.70445 41.282 8.69377 41.2705 8.69377 41.1292C8.69377 40.8461 8.75343 40.8158 10.3294 40.2988C11.3885 39.9514 11.773 39.7898 11.6585 39.7404C11.5322 39.6858 10.8256 39.6203 9.87887 39.5754C8.36639 39.5037 7.56264 39.4389 7.13283 39.3539C6.61307 39.2511 6.52373 38.8148 6.99077 38.6601C7.43447 38.5131 8.12175 38.4112 10.7358 38.105C13.2568 37.8097 13.4985 37.7762 13.4118 37.7348C13.374 37.7167 12.9 37.5856 12.3585 37.4435C11.207 37.1412 9.77305 36.7188 9.51802 36.6067C9.41982 36.5635 9.30809 36.479 9.26966 36.4187C9.20891 36.3235 9.20581 36.2931 9.24592 36.1845C9.27126 36.1159 9.29555 36.0532 9.29992 36.0453C9.3043 36.0374 9.36771 36.0152 9.44078 35.9959C9.6137 35.9504 10.2212 35.9994 12.0595 36.2072C14.0932 36.4372 14.8204 36.5032 15.6585 36.5339C16.3317 36.5587 17.9447 36.4944 18.1354 36.4353L18.2239 36.4079L18.1391 36.3712C17.6101 36.1426 15.5996 35.6862 12.6502 35.1252C11.848 34.9726 11.0029 34.8084 10.7722 34.7603C10.2429 34.65 8.8521 34.4318 7.25342 34.2082C5.91448 34.021 5.66747 33.9546 5.02263 33.6086C4.44915 33.3009 4.20863 33.0299 4.20863 32.6913C4.20863 32.2602 4.60832 31.9476 5.52135 31.6645C5.71188 31.6055 5.87269 31.5518 5.87867 31.5454C5.88469 31.5389 5.84848 31.4628 5.79823 31.3763C5.58659 31.0121 5.49867 30.5107 5.57094 30.0805L5.6023 29.8939L5.47978 29.9185C5.16353 29.9821 3.50563 30.0416 2.65214 30.0199C1.65454 29.9945 1.3105 29.9427 1.00955 29.7725C0.633932 29.5602 0.61023 29.154 0.952304 28.7931C1.70194 28.002 4.88545 26.6581 9.14958 25.3327C9.49052 25.2266 9.84332 25.1165 9.93357 25.0878C10.095 25.0366 10.0875 25.0342 9.45953 24.9415C7.95401 24.7192 6.81249 24.3422 6.41842 23.9371C6.08808 23.5974 6.16911 23.1786 6.60792 22.9576C6.87576 22.8227 7.12558 22.7637 9.02049 22.3879C11.6679 21.8627 12.9395 21.5561 13.2448 21.3694C13.3357 21.3136 13.331 21.31 13.0855 21.2458C12.5254 21.0995 11.5294 20.9706 10.0612 20.8545C7.96955 20.689 6.92035 20.5393 6.14125 20.2951C5.73245 20.1669 5.32991 19.9327 5.22624 19.7626C5.03262 19.445 5.1299 19.0857 5.49677 18.7635C6.01661 18.3069 6.7753 17.9462 9.29544 16.9574C11.1933 16.2128 11.79 15.9531 12.4733 15.574C12.8856 15.3454 13.2154 15.109 13.2154 15.0422C13.2154 14.8841 11.544 14.8563 9.55069 14.9813C8.83883 15.026 7.78143 15.0578 6.9617 15.0593C5.74021 15.0614 5.55158 15.0528 5.36955 14.987C4.97482 14.8444 4.85606 14.5 5.10234 14.2123C5.40368 13.8603 6.28 13.4967 9.05842 12.5706C12.2017 11.523 13.1958 11.1396 13.8444 10.7251C14.0232 10.6109 14.1048 10.5256 14.0354 10.5256C14.0252 10.5256 13.8652 10.4977 13.6799 10.4637C13.0559 10.3489 12.331 10.3065 10.3711 10.27C8.31953 10.2317 8.15847 10.2165 7.70296 10.0165C7.45704 9.90855 7.25079 9.66514 7.21466 9.44025C7.15136 9.04615 7.44278 8.63245 8.3583 7.81672C9.71124 6.61123 10.2371 5.98538 10.6207 5.12413C11.0644 4.12811 11.2366 3.14346 11.3764 0.803653ZM14.6797 24.3892C15.1044 24.3169 16.1379 24.0779 16.1656 24.0455C16.1922 24.0146 16.0166 24.0341 15.7314 24.094C14.3442 24.385 13.7905 24.5404 14.6797 24.3892ZM14.8563 28.3711C14.8563 28.3323 14.5357 28.2592 14.1088 28.2006C13.6693 28.1402 11.9327 28.114 11.3192 28.1584C9.85331 28.2646 8.5051 28.5214 7.62259 28.8628C7.2047 29.0244 6.74069 29.2565 6.7691 29.2897C6.77927 29.3016 7.08109 29.2925 7.43983 29.2695C7.7986 29.2465 8.51874 29.2165 9.04018 29.2029C11.2166 29.1458 12.596 28.996 13.9811 28.6663C14.4036 28.5657 14.8563 28.413 14.8563 28.3711ZM15.6566 31.4495C15.9779 31.3444 15.9938 31.3341 15.8936 31.2962C15.7924 31.2579 12.9073 31.2211 12.4314 31.252C12.3111 31.2598 11.868 31.2863 11.4468 31.3108C10.4769 31.3671 9.19045 31.4942 8.18327 31.633C7.10596 31.7815 7.10249 31.783 7.54729 31.8998C8.21656 32.0756 8.66846 32.1248 9.8424 32.1494C11.9011 32.1926 14.247 31.9102 15.6566 31.4495ZM65.5825 46.1125C64.8148 41.5726 63.3049 20.8432 63.7013 20.2835C63.9082 19.9913 64.1845 19.982 64.3815 20.2606C64.4639 20.3774 64.6369 22.4213 64.7658 24.8027C65.2219 33.2282 65.8569 41.203 66.3722 44.9757C66.5989 46.6365 66.9988 48.1681 67.3863 48.8616C67.6864 49.3982 68.264 49.3316 68.6547 48.7154C68.9359 48.2721 68.9385 48.1461 68.7721 43.112C68.6785 40.2796 68.5419 36.625 68.4685 34.9907C68.3952 33.3564 68.3211 29.5024 68.3037 26.4265C68.2754 21.3903 68.296 20.8162 68.5111 20.6571C69.1858 20.1584 69.3234 21.2804 69.332 27.3497C69.3358 30.1047 69.434 34.8039 69.55 37.7924C69.6661 40.7808 69.7776 44.4485 69.7981 45.9427C69.8376 48.8334 69.7604 49.262 69.0685 49.996C68.6502 50.4397 67.5577 50.561 67.1057 50.2139C66.5692 49.802 65.9031 48.0084 65.5825 46.1125ZM50.3443 31.1962C50.3359 23.7299 50.7487 21.738 52.5219 20.6851C52.9545 20.4282 53.4509 20.2181 53.625 20.2181C54.0686 20.2181 54.6613 20.8101 55.0023 21.5935C55.376 22.4519 56.3591 27.0947 56.6526 29.3873C57.1694 33.4228 57.2936 42.2956 56.8709 44.9642L56.7031 46.0234L57.6683 47.9073C58.1991 48.9435 58.6127 49.9186 58.5874 50.0743C58.5622 50.23 58.4011 50.3811 58.2297 50.4098C57.8927 50.4664 57.358 49.6882 56.7354 48.235C56.5554 47.8148 56.3857 47.4417 56.3583 47.4059C56.331 47.3701 56.0758 47.5803 55.7916 47.8728C54.374 49.3316 52.3216 47.7178 51.4414 44.4524C50.6474 41.5064 50.3518 37.9345 50.3443 31.1962ZM40.4224 21.2622C40.3497 20.8564 40.3785 20.65 40.5227 20.5423C40.6338 20.4594 40.8226 20.443 40.9421 20.5058C41.0616 20.5686 41.9091 20.6634 42.8255 20.7162C44.4833 20.8119 44.4915 20.8145 44.4915 21.2363C44.4915 21.6259 44.4218 21.6708 43.6223 21.7946C43.1442 21.8686 42.4923 21.9071 42.1735 21.8801L41.594 21.8312L41.589 25.5668C41.5862 27.6214 41.5058 30.5963 41.4103 32.1778C41.3149 33.7591 41.2678 35.0895 41.3057 35.1338C41.3437 35.1783 42.0368 35.299 42.8462 35.4021C44.4037 35.6004 44.8233 35.8631 44.4423 36.4012C44.2988 36.6038 43.9775 36.6343 42.7588 36.5615L41.2526 36.4713L41.1745 37.047C41.0453 38.0009 40.7962 44.5947 40.7968 47.0548L40.7972 49.3554L42.2822 49.1599C43.973 48.9375 44.4641 49.0484 44.3929 49.6362C44.351 49.9821 44.2241 50.0364 43.0428 50.2156C40.9114 50.5387 40.2728 50.507 40.0087 50.065C39.6377 49.4442 39.7379 45.5225 40.5004 30.8306C40.7646 25.7397 40.7426 23.0507 40.4224 21.2622ZM95.4408 26.3309C95.7658 22.7505 96.068 21.4047 96.6127 21.113C97.2008 20.7978 97.9038 21.5047 98.5283 23.039C99.516 25.4658 100.937 33.1494 101.571 39.4904C101.701 40.7978 101.94 42.8609 102.102 44.075C102.512 47.1605 102.619 49.581 102.355 49.7772C101.783 50.2013 101.669 49.787 101.21 45.615C100.951 43.2686 100.461 39.2938 100.259 37.8973L100.175 37.323L98.9904 37.4387C98.3386 37.5022 97.4142 37.646 96.9361 37.7582L96.0668 37.9622L95.9647 40.5092C95.9085 41.91 95.7703 44.4315 95.6576 46.1125C95.545 47.7936 95.4839 49.4138 95.5218 49.713C95.5827 50.1942 95.5444 50.2708 95.1905 50.3749C94.89 50.4632 94.7418 50.4148 94.5955 50.1803C94.3531 49.7918 94.3536 49.7237 94.6279 45.688C94.7518 43.867 94.8773 40.091 94.9067 37.2967C94.9645 31.81 94.9887 31.3113 95.4408 26.3309ZM87.9623 26.1236C87.9853 23.5347 88.0456 21.3378 88.0961 21.2419C88.2522 20.9461 88.5864 21.0478 88.7773 21.4492C89.0587 22.0406 89.0994 27.7124 88.8533 32.0192C88.7239 34.2814 88.6345 38.5879 88.6264 42.938C88.6191 46.8889 88.5751 50.1935 88.5284 50.2818C88.4819 50.3701 88.3185 50.4424 88.1654 50.4424C87.6091 50.4424 87.5688 49.362 87.7561 39.4904C87.8465 34.7275 87.9394 28.7124 87.9623 26.1236ZM28.6919 23.7164C29.2102 22.3615 30.0119 21.7078 31.5253 21.4066C32.7311 21.1666 33.0908 21.205 33.1935 21.5847C33.3413 22.1301 33.0166 22.4254 32.2682 22.4266C30.5272 22.4289 29.6623 23.2219 29.2861 25.1603C28.9266 27.0127 28.9707 28.8535 29.417 30.6343C29.9934 32.9336 30.0033 32.9497 32.8267 36.0944C34.1746 37.5957 34.9098 38.9234 35.3873 40.7185C35.7217 41.9754 35.7559 42.3347 35.6952 43.9527C35.6159 46.0603 35.1348 47.9545 34.4664 48.7911C33.9845 49.3939 32.1182 50.4424 31.527 50.4424C31.238 50.4424 31.0821 50.3387 31.0186 50.1044C30.8974 49.6568 31.0366 49.4236 31.4252 49.4235C31.8821 49.4233 33.4278 48.5205 33.785 48.045C34.1731 47.5287 34.677 45.5833 34.7913 44.1599C34.9063 42.7274 34.5836 40.9172 33.966 39.5303C33.6155 38.7436 32.9688 37.861 31.4485 36.0944C29.1868 33.4664 28.8894 32.9207 28.3544 30.4163C27.8595 28.0994 27.9876 25.5583 28.6919 23.7164ZM55.7985 30.5759C55.5343 28.1841 54.9904 25.1787 54.4744 23.2596C54.1173 21.9316 53.7799 21.3892 53.4013 21.5344C51.934 22.0973 51.6236 22.9806 51.3435 27.3869C51.2134 29.4347 51.214 31.095 51.3464 34.5185C51.6398 42.1102 52.1113 44.7472 53.4969 46.5447C53.9282 47.1042 54.107 47.2162 54.569 47.2162C55.1184 47.2162 55.5744 46.781 55.5744 46.2565C55.5744 46.1439 55.1798 45.3532 54.6974 44.4993C53.5153 42.4074 53.4338 42.1814 53.7334 41.8302C53.9547 41.5708 53.9925 41.5726 54.2608 41.8572C54.4198 42.0258 54.8619 42.7325 55.2432 43.4275L55.9366 44.6911L56.0547 43.7039C56.2436 42.1248 56.0654 32.9908 55.7985 30.5759ZM75.9926 30.9444C76.2925 26.9264 77.0086 23.9093 77.9062 22.8825C78.3877 22.3318 78.5518 22.2435 79.0114 22.2882C79.5203 22.3376 79.5782 22.4055 80.025 23.4747C80.5847 24.8141 80.6932 25.4554 81.025 29.3873C81.3377 33.0925 81.3818 42.9281 81.0981 45.7426C80.7498 49.1992 80.1903 50.426 78.9566 50.437C77.6039 50.4492 76.7442 48.3315 76.3052 43.9052C76.0127 40.9561 75.8253 33.1864 75.9926 30.9444ZM100.099 35.4576C99.8737 33.1234 98.1394 24.9737 97.5508 23.4846C97.3935 23.0866 97.2101 22.7213 97.1434 22.6729C96.6998 22.3517 96.0014 29.6014 95.9966 34.5757L95.9944 36.7926L97.2621 36.4888C97.9593 36.3217 98.8984 36.1837 99.349 36.1822L100.168 36.1793L100.099 35.4576ZM80.3036 39.9149C80.4221 32.5306 79.9687 25.7638 79.2424 24.0811C78.8581 23.1907 78.8516 23.1842 78.6447 23.4868C77.9988 24.4317 77.3414 27.2354 77.003 30.4885C76.7084 33.3199 77.0421 42.9864 77.5364 45.9427C78.0842 49.2189 79.1099 50.3382 79.6772 48.2792C80.0852 46.7984 80.2224 44.9661 80.3036 39.9149Z" fill="#F6F6F6"/>
</svg>
